# xmcd
#
# Track frame offsets: 
#        150
#        15189
#        35361
#        63528
#        84039
#        104083
#        131642
#        152511
#        178073
#        200959
#        231928
#        250262
#
# Disc length: 3622 seconds
#
# Revision: 1
# Processed by: cddbd v1.5.2PL0 Copyright (c) Steve Scherf et al.
# Submitted via: ExactAudioCopy v0.99pb4
#
DISCID=9b0e240c
DTITLE=Michael Burks - Iron Man
DYEAR=2008
DGENRE=Blues
TTITLE0=Love Disease
TTITLE1=Strange Feeling
TTITLE2=Empty Promises
TTITLE3=Salty Tears
TTITLE4=No More Crying
TTITLE5=Ashes in My Ashtray
TTITLE6=Don't Waste My Time
TTITLE7=Quiet Little Town
TTITLE8=Hard Come, Easy Go
TTITLE9=Icepick Through My Heart
TTITLE10=Fire and Water
TTITLE11=Changed Man
EXTD=YEAR: 2008
EXTT0=
EXTT1=
EXTT2=
EXTT3=
EXTT4=
EXTT5=
EXTT6=
EXTT7=
EXTT8=
EXTT9=
EXTT10=
EXTT11=
PLAYORDER=
